<?xml version="1.0" encoding="UTF-8" standalone="no"?>
<svg
   id="Layer_1"
   data-name="Layer 1"
   viewBox="0 0 566.93 106.87"
   version="1.1"
   sodipodi:docname="calcom-white.svg"
   inkscape:version="1.4 (86a8ad7, 2024-10-11)"
   xmlns:inkscape="http://www.inkscape.org/namespaces/inkscape"
   xmlns:sodipodi="http://sodipodi.sourceforge.net/DTD/sodipodi-0.dtd"
   xmlns="http://www.w3.org/2000/svg"
   xmlns:svg="http://www.w3.org/2000/svg">
  <sodipodi:namedview
     id="namedview2"
     pagecolor="#ffffff"
     bordercolor="#000000"
     borderopacity="0.25"
     inkscape:showpageshadow="2"
     inkscape:pageopacity="0.0"
     inkscape:pagecheckerboard="0"
     inkscape:deskcolor="#d1d1d1"
     inkscape:zoom="1.6042545"
     inkscape:cx="205.07968"
     inkscape:cy="138.6937"
     inkscape:window-width="1920"
     inkscape:window-height="1111"
     inkscape:window-x="-9"
     inkscape:window-y="-9"
     inkscape:window-maximized="1"
     inkscape:current-layer="Layer_1" />
  <defs
     id="defs1">
    <rect
       x="153.34225"
       y="-27.115398"
       width="112.20164"
       height="27.738741"
       id="rect3" />
    <style
       id="style1">.cls-1,.cls-2{fill:#fff;}.cls-1,.cls-3{fillRule:evenodd;}.cls-3{fill:#2492eb;}</style>
  </defs>
  <rect
     class="cls-2"
     x="19.35"
     width="10.11"
     height="18.5"
     rx="5.05"
     id="rect1" />
  <rect
     class="cls-2"
     x="68.31"
     width="10.11"
     height="18.5"
     rx="5.05"
     id="rect2" />
  <path
     class="cls-1"
     d="M11,9.1h3v4.35A10.43,10.43,0,0,0,24.4,23.84h0A10.42,10.42,0,0,0,34.79,13.45V9.1H63v4.35A10.42,10.42,0,0,0,73.36,23.84h0A10.42,10.42,0,0,0,83.75,13.45V9.1h3a11,11,0,0,1,11,11V95.91a11,11,0,0,1-11,11H48.54L0,58.33V20.07a11,11,0,0,1,11-11ZM68.21,33.64H29.31a5,5,0,0,0-5,5v38.9a5,5,0,0,0,5,5H61.1L73.24,94.74V38.67A5,5,0,0,0,68.21,33.64Z"
     transform="translate(0)"
     id="path2" />
  <polygon
     class="cls-3"
     points="48.54 58.33 0 58.33 48.54 106.87 48.54 58.33"
     id="polygon2" />
  <text
     xml:space="preserve"
     id="text2"
     style="font-weight:bold;font-size:21.3333px;font-family:sans-serif;-inkscape-font-specification:'sans-serif Bold';text-align:start;writing-mode:lr-tb;direction:ltr;white-space:pre;shape-inside:url(#rect3);fill:#ffffff;fill-opacity:1;stroke-width:25.1906"
     transform="matrix(4.5718403,0,0,5.0407088,-572.54692,135.41543)"><tspan
       x="153.3418"
       y="-7.6522184"
       id="tspan1">Mo.COM</tspan></text>
</svg>
